<svg width="64" height="64" viewBox="0 0 64 64" fill="none" xmlns="http://www.w3.org/2000/svg">
<rect width="64" height="64" rx="5" fill="#41B883"/>
<path d="M31.8059 52C29.5873 52 27.4796 51.7253 25.4829 51.1761C23.4861 50.5901 21.6928 49.7479 20.1028 48.6493C18.5498 47.5507 17.311 46.1958 16.3866 44.5845C15.4992 42.9732 15.037 41.1056 15 38.9817C15 38.6521 15.1109 38.3775 15.3328 38.1577C15.5546 37.9014 15.832 37.7732 16.1648 37.7732H25.5938C26.1854 37.7732 26.6107 37.9014 26.8695 38.1577C27.1653 38.4141 27.4241 38.8352 27.646 39.4211C27.9048 40.1535 28.2191 40.7761 28.5889 41.2887C28.9956 41.7648 29.4948 42.1127 30.0865 42.3324C30.6781 42.5521 31.3622 42.662 32.1387 42.662C33.5807 42.662 34.69 42.2042 35.4666 41.2887C36.28 40.3732 36.6868 38.9268 36.6868 36.9493V22.6676H19.4372C19.0305 22.6676 18.6792 22.5394 18.3834 22.2831C18.1245 21.9901 17.9951 21.6423 17.9951 21.2394V14.4282C17.9951 14.0254 18.1245 13.6958 18.3834 13.4394C18.6792 13.1465 19.0305 13 19.4372 13H47.5579C47.9647 13 48.2974 13.1465 48.5563 13.4394C48.8521 13.6958 49 14.0254 49 14.4282V37.3338C49 40.593 48.242 43.3211 46.7259 45.5183C45.2469 47.6789 43.1947 49.3085 40.5693 50.407C37.981 51.469 35.0598 52 31.8059 52Z" fill="white"/>
</svg>
