<svg width="32" height="32" viewBox="0 0 32 32" fill="none" xmlns="http://www.w3.org/2000/svg">
<rect width="32" height="32" rx="5" fill="#FFA732"/>
<path d="M16.144 27.72C14.8213 27.72 13.552 27.5493 12.336 27.208C11.1413 26.8667 10.064 26.3653 9.104 25.704C8.16533 25.0213 7.41867 24.2 6.864 23.24C6.30933 22.2587 6.02133 21.1387 6 19.88C6 19.688 6.064 19.528 6.192 19.4C6.34133 19.2507 6.512 19.176 6.704 19.176H13.232C13.5947 19.176 13.8613 19.2613 14.032 19.432C14.224 19.5813 14.3947 19.8373 14.544 20.2C14.6933 20.4773 14.8427 20.712 14.992 20.904C15.1413 21.096 15.3227 21.2453 15.536 21.352C15.7707 21.4373 16.0587 21.48 16.4 21.48C16.976 21.48 17.4347 21.2987 17.776 20.936C18.1173 20.552 18.288 19.8693 18.288 18.888V11.496H8.784C8.54933 11.496 8.34667 11.4107 8.176 11.24C8.00533 11.0693 7.92 10.8667 7.92 10.632V5.864C7.92 5.62933 8.00533 5.42667 8.176 5.256C8.34667 5.08533 8.54933 5 8.784 5H25.712C25.9467 5 26.1493 5.08533 26.32 5.256C26.4907 5.42667 26.576 5.62933 26.576 5.864V19.144C26.576 21.1067 26.1067 22.728 25.168 24.008C24.2507 25.2667 23.0027 26.2053 21.424 26.824C19.8453 27.4213 18.0853 27.72 16.144 27.72Z" fill="white"/>
</svg>
