<svg width="393" height="393" viewBox="0 0 393 393" fill="none" xmlns="http://www.w3.org/2000/svg">
<rect width="393" height="393" rx="20" fill="#0B0B0B" fill-opacity="0.5"/>
<path d="M134.049 90.4971C133.698 90.4971 133.523 89.8817 133.523 88.6509C133.523 87.0683 133.698 85.1341 134.049 82.8482C134.575 80.5623 135.101 78.5402 135.627 76.7818C136.329 74.8476 136.942 73.7925 137.468 73.6167C144.308 70.6275 152.989 67.902 163.512 65.4402C174.21 62.8027 185.609 60.7805 197.71 59.3738C209.811 57.7913 221.386 57 232.434 57C237.52 57 242.869 57.2638 248.481 57.7913C254.268 58.3188 259.091 59.0221 262.95 59.9013C266.983 60.7805 269 61.8355 269 63.0664C269 63.2423 268.825 63.3302 268.474 63.3302C264.616 63.1543 260.407 63.0664 255.847 63.0664C251.462 62.8906 246.903 62.8027 242.168 62.8027C229.19 62.8027 215.861 64.1214 202.182 66.759C188.678 69.2208 175.963 72.5617 164.038 76.7818C152.112 80.8261 142.204 85.3978 134.312 90.4971H134.049ZM158.25 335C154.743 334.121 151.586 332.45 148.78 329.989C145.974 327.703 144.571 325.329 144.571 322.867C144.571 322.515 144.571 322.164 144.571 321.812C144.747 321.46 144.922 321.109 145.097 320.757C145.097 320.405 145.185 320.23 145.36 320.23H145.097C143.694 320.23 142.554 319.878 141.677 319.175C135.189 314.603 130.453 309.24 127.472 303.085C124.491 296.931 123 290.249 123 283.04C123 274.072 124.929 264.489 128.787 254.29C132.646 244.268 137.907 234.157 144.571 223.958C151.235 213.584 158.777 203.561 167.195 193.89C175.613 184.043 184.381 174.899 193.501 166.459C194.202 160.129 194.729 153.887 195.079 147.732C195.43 141.402 195.605 135.248 195.605 129.269C195.605 118.895 195.079 109.136 194.027 99.9924C192.975 90.673 191.309 82.4086 189.029 75.1992C189.029 74.32 190.607 73.8805 193.764 73.8805C196.745 73.8805 199.902 74.4959 203.234 75.7268C206.742 76.9576 208.759 79.2435 209.285 82.5844C209.986 86.9804 210.512 91.6401 210.863 96.5636C211.214 101.311 211.389 106.235 211.389 111.334C211.389 118.016 211.126 124.961 210.6 132.171C210.249 139.204 209.635 146.326 208.759 153.535C216.65 147.381 224.279 142.106 231.645 137.71C239.186 133.138 246.114 129.797 252.427 127.687C253.129 127.511 253.742 127.423 254.268 127.423C254.795 127.247 255.321 127.159 255.847 127.159C258.127 127.159 259.267 127.775 259.267 129.006C259.267 129.533 258.828 130.149 257.951 130.852C249.358 134.545 240.765 139.116 232.171 144.567C223.753 149.843 215.598 155.733 207.706 162.239C205.602 178.24 202.883 194.33 199.551 210.507C196.219 226.508 192.712 241.63 189.029 255.873C185.346 270.292 181.926 283.04 178.769 294.118C176.665 301.679 174.823 307.921 173.245 312.844C171.842 317.944 170.001 322.164 167.721 325.505C165.616 329.022 162.459 332.187 158.25 335ZM148.517 313.108C158.514 290.953 167.984 267.127 176.928 241.63C180.435 231.431 183.505 220.793 186.135 209.715C188.766 198.462 190.783 187.208 192.186 175.954C180.962 186.856 170.877 198.462 161.933 210.77C152.989 222.903 145.974 234.948 140.888 246.905C135.802 258.862 133.259 270.028 133.259 280.402C133.259 286.908 134.487 292.975 136.942 298.601C139.398 304.228 143.256 309.064 148.517 313.108Z" fill="url(#paint0_linear_106_212)"/>
<defs>
<linearGradient id="paint0_linear_106_212" x1="180.611" y1="-41.9969" x2="180.611" y2="399.357" gradientUnits="userSpaceOnUse">
<stop stop-color="white" stop-opacity="0"/>
<stop offset="1" stop-color="white"/>
</linearGradient>
</defs>
</svg>
